<svg xmlns="http://www.w3.org/2000/svg" viewBox="0 0 64 64" role="img" aria-label="Develonica.LLM">
  <defs>
    <linearGradient id="bg" x1="8" y1="6" x2="56" y2="58" gradientUnits="userSpaceOnUse">
      <stop offset="0" stop-color="#fffaf5"/>
      <stop offset="0.56" stop-color="#f1e7dd"/>
      <stop offset="1" stop-color="#b4143b"/>
    </linearGradient>
    <linearGradient id="accent" x1="13" y1="14" x2="51" y2="49" gradientUnits="userSpaceOnUse">
      <stop offset="0" stop-color="#b4143b"/>
      <stop offset="1" stop-color="#e23d5f"/>
    </linearGradient>
  </defs>
  <rect width="64" height="64" rx="16" fill="url(#bg)"/>
  <path d="M18 16h13c10.5 0 18 6.3 18 16s-7.5 16-18 16H18V16Zm10 9v14h3.3c5 0 8.7-2.5 8.7-7s-3.7-7-8.7-7H28Z" fill="#211916"/>
  <path d="M17 48c6-9 15-15.5 29-17.5" fill="none" stroke="url(#accent)" stroke-width="4" stroke-linecap="round"/>
  <circle cx="20" cy="46" r="3" fill="#b4143b"/>
  <circle cx="34" cy="36" r="2.6" fill="#b4143b"/>
  <circle cx="47" cy="30" r="3" fill="#b4143b"/>
  <path d="M46 13l1.7 4.1 4.3 1.6-4.3 1.7L46 25l-1.7-4.6-4.3-1.7 4.3-1.6L46 13Z" fill="#211916" opacity=".92"/>
</svg>
