<svg xmlns="http://www.w3.org/2000/svg" viewBox="0 0 64 64" role="img" aria-label="Develonica.LLM">
  <defs>
    <linearGradient id="bg" x1="8" y1="6" x2="56" y2="58" gradientUnits="userSpaceOnUse">
      <stop offset="0" stop-color="#F7FBFF"/>
      <stop offset="0.52" stop-color="#CAE5FF"/>
      <stop offset="1" stop-color="#59AFFF"/>
    </linearGradient>
    <linearGradient id="accent" x1="13" y1="14" x2="51" y2="49" gradientUnits="userSpaceOnUse">
      <stop offset="0" stop-color="#94CBFF"/>
      <stop offset="1" stop-color="#0A5AA4"/>
    </linearGradient>
  </defs>
  <rect width="64" height="64" rx="10" fill="url(#bg)"/>
  <path d="M17 15h14c10.8 0 18 6.5 18 17s-7.2 17-18 17H17V15Zm10 9v16h4.1c5.4 0 8.9-2.9 8.9-8s-3.5-8-8.9-8H27Z" fill="#414141"/>
  <path d="M17 49c8-9.5 17.5-15.5 31-18" fill="none" stroke="url(#accent)" stroke-width="4" stroke-linecap="round"/>
  <circle cx="20" cy="47" r="3" fill="#0A5AA4"/>
  <circle cx="35" cy="37" r="2.8" fill="#59AFFF"/>
  <circle cx="48" cy="31" r="3" fill="#0A5AA4"/>
  <path d="M45 12l1.8 4.4 4.5 1.7-4.5 1.7L45 24.5l-1.8-4.7-4.5-1.7 4.5-1.7L45 12Z" fill="#495561"/>
</svg>
